<svg id="logo" xmlns="http://www.w3.org/2000/svg" xmlns:xlink="http://www.w3.org/1999/xlink" width="700.000000pt" height="700.000000pt" viewBox="0 0 700.000000 700.000000"
     preserveAspectRatio="xMidYMid meet">
  <metadata>
    Created by potrace 1.14, written by Peter Selinger 2001-2017
  </metadata>
  <g transform="translate(0.000000,700.000000) scale(0.100000,-0.100000)"
     fill="#000000" stroke="none">
    <path d="M0 3500 l0 -3500 3500 0 3500 0 0 3500 0 3500 -3500 0 -3500 0 0
-3500z m2329 946 c218 -527 401 -959 406 -959 6 -1 188 431 406 958 l396 960
319 3 320 2 477 -1877 c263 -1033 481 -1886 483 -1896 5 -16 -18 -17 -433 -15
l-438 3 -251 1050 c-295 1236 -263 1110 -273 1099 -4 -5 -165 -370 -357 -812
l-349 -802 -304 2 -303 3 -340 785 c-187 432 -344 796 -349 810 -8 20 -12 22
-18 10 -5 -8 -122 -495 -262 -1082 l-254 -1068 -437 0 c-241 0 -438 3 -438 8
-1 4 216 856 482 1895 l483 1887 319 -2 320 -3 395 -959z m3179 953 c647 -70
1051 -402 1149 -944 23 -123 22 -368 -2 -500 -78 -447 -344 -759 -766 -899
-205 -68 -409 -96 -716 -96 -155 0 -172 2 -177 18 -7 23 -166 717 -166 724 0
4 120 8 268 10 261 4 269 4 345 31 220 77 327 226 327 457 0 93 -16 163 -53
233 -37 70 -91 119 -172 158 -127 60 -147 62 -552 67 l-373 3 -11 42 c-6 23
-51 188 -100 366 -49 179 -89 329 -89 333 0 12 975 10 1088 -3z"/>
  </g>
</svg>
